<svg class="thumb" width="1000" height="1000" viewBox="0,0,600,600" xmlns="http://www.w3.org/2000/svg" xmlns:inkscape="http://www.inkscape.org/namespaces/inkscape" xmlns:sodipodi="http://sodipodi.sourceforge.net/DTD/sodipodi-0.dtd" xmlns:xlink="http://www.w3.org/1999/xlink" xmlns:ns1="http://www.inkscape.org/namespaces/inkscape" xmlns:sketch="http://www.bohemiancoding.com/sketch/ns">
  <defs><style type='text/css'></style></defs>
  <g transform="matrix(0.4783,0,0,0.4783,-38.7134,225.6806)">
    <g transform="matrix(3.1975,0,0,3.1975,161.1344,84.0575)">
      <svg width="87" height="70.84941196990927" viewBox="6.999999999999998,27.15058803009073,87,70.84941196990927">
        <defs>
          <linearGradient x1="0" y1="0.5" x2="1" y2="0.5" id="linearGradientSjsi0ssch4">
            <stop offset="100%" stop-color="#efe988"></stop>
          </linearGradient>
        </defs>
        <g></g>
        <g></g>
        <g></g>
        <g></g>
        <g></g>
        <g>
          <path d="M83.484,93h-67C13.723,93,12,90.923,12,88.161V70.318c0-1.341,0.281-2.626,1.237-3.566l33.621-33.168    c1.958-1.922,5.03-1.909,6.972,0.026l33.475,33.168C88.246,67.717,89,68.99,89,70.318v17.843C89,90.923,86.246,93,83.484,93z     M22,83h57V72.393L50.724,44.187L22,72.415V83z" fill="url('#linearGradientSjsi0ssch4')" stroke="none" style=""></path>
        </g>
      </svg>
    </g>
    <g transform="matrix(3.1975,0,0,3.1975,127.6849,0.1897)">
      <svg width="106.56182346553415" height="60.46769533194042" viewBox="-3.2809444082375276,1.516304668059579,106.56182346553415,60.46769533194042">
        <defs>
          <linearGradient x1="0" y1="0.5" x2="1" y2="0.5" id="linearGradientSjsi0ssch9">
            <stop offset="0%" stop-color="#ffffff"></stop>
            <stop offset="100%" stop-color="#ffffff"></stop>
          </linearGradient>
        </defs>
        <g></g>
        <g></g>
        <g></g>
        <g></g>
        <g></g>
        <g>
          <path d="M93.28,56.984c-1.277,0-2.556-0.486-3.531-1.46L50.874,16.745c-0.325-0.324-0.861-0.327-1.192-0.001L10.224,55.521     c-1.97,1.935-5.135,1.907-7.071-0.062c-1.936-1.97-1.908-5.136,0.062-7.071l39.46-38.779c4.226-4.145,11.068-4.12,15.259,0.054     l38.878,38.782c1.955,1.95,1.959,5.116,0.009,7.071C95.844,56.494,94.562,56.984,93.28,56.984z" fill="url('#linearGradientSjsi0ssch9')" stroke="none" style=""></path>
        </g>
      </svg>
    </g>
    <g transform="matrix(1.4136,0,0,1.4136,470.8199,108.8275)">
      <svg width="572.3000000000001" height="160" style="overflow: visible;">
        <defs>
          <linearGradient x1="0" y1="0.5" x2="1" y2="0.5" id="linearGradientSjsi0sschh">
            <stop offset="0%" stop-color="#ffffff"></stop>
            <stop offset="100%" stop-color="#ffffff"></stop>
          </linearGradient>
        </defs>
        <g transform="matrix(1,0,0,1,0,75)">
          <path d="M 77.1-60L 77.1-60L 77.1-57.2L 69-57.2L 69-60Q 69-61.6  67.85-62.75Q 66.7-63.9  65.1-63.9L 65.1-63.9L 17.1-63.9Q 15.5-63.9  14.35-62.75Q 13.2-61.6  13.2-60L 13.2-60L 13.2-43.9Q 13.2-42.3  14.35-41.2Q 15.5-40.1  17.1-40.1L 17.1-40.1L 65.1-40.1Q 70.1-40.1  73.6-36.6Q 77.1-33.1  77.1-28.1L 77.1-28.1L 77.1-12Q 77.1-7  73.6-3.5Q 70.1 0  65.1 0L 65.1 0L 17.1 0Q 12.1 0  8.6-3.5Q 5.1-7  5.1-12L 5.1-12L 5.1-14.8L 13.2-14.8L 13.2-12Q 13.2-10.4  14.35-9.25Q 15.5-8.1  17.1-8.1L 17.1-8.1L 65.1-8.1Q 66.7-8.1  67.85-9.25Q 69-10.4  69-12L 69-12L 69-28.1Q 69-29.7  67.85-30.8Q 66.7-31.9  65.1-31.9L 65.1-31.9L 17.1-31.9Q 12.1-31.9  8.6-35.4Q 5.1-38.9  5.1-43.9L 5.1-43.9L 5.1-60Q 5.1-65  8.6-68.5Q 12.1-72  17.1-72L 17.1-72L 65.1-72Q 70.1-72  73.6-68.5Q 77.1-65  77.1-60ZM 87.6-58L 134.6-58Q 139.6-58  143.14999999999998-54.45Q 146.7-50.9  146.7-45.9L 146.7-45.9L 146.7-12.1Q 146.7-7.1  143.14999999999998-3.55Q 139.6 0  134.6 0L 134.6 0L 95.79999999999998 0L 95.79999999999998 23L 87.6 23L 87.6-58ZM 138.5-12.1L 138.5-12.1L 138.5-45.9Q 138.5-47.5  137.35-48.65Q 136.2-49.8  134.6-49.8L 134.6-49.8L 99.79999999999998-49.8Q 98.19999999999999-49.8  96.99999999999999-48.65Q 95.79999999999998-47.5  95.79999999999998-45.9L 95.79999999999998-45.9L 95.79999999999998-12.1Q 95.79999999999998-10.5  96.99999999999999-9.35Q 98.19999999999999-8.2  99.79999999999998-8.2L 99.79999999999998-8.2L 134.6-8.2Q 136.2-8.2  137.35-9.35Q 138.5-10.5  138.5-12.1ZM 153.79999999999995-58L 200.69999999999996-58Q 205.79999999999995-58  209.34999999999997-54.45Q 212.89999999999998-50.9  212.89999999999998-45.9L 212.89999999999998-45.9L 212.89999999999998 0L 165.89999999999998 0Q 160.89999999999998 0  157.34999999999997-3.55Q 153.79999999999995-7.1  153.79999999999995-12.1L 153.79999999999995-12.1L 153.79999999999995-33.1L 204.59999999999997-33.1L 204.59999999999997-45.9Q 204.59999999999997-47.5  203.44999999999996-48.65Q 202.29999999999995-49.8  200.69999999999996-49.8L 200.69999999999996-49.8L 153.79999999999995-49.8L 153.79999999999995-58ZM 165.89999999999998-8.2L 204.59999999999997-8.2L 204.59999999999997-24.9L 161.99999999999997-24.9L 161.99999999999997-12.1Q 161.99999999999997-10.5  163.14999999999998-9.35Q 164.29999999999995-8.2  165.89999999999998-8.2L 165.89999999999998-8.2ZM 234.19999999999996-8.2L 234.19999999999996-8.2L 281.2-8.2L 281.2 0L 234.19999999999996 0Q 229.19999999999996 0  225.64999999999998-3.55Q 222.09999999999997-7.1  222.09999999999997-12.1L 222.09999999999997-12.1L 222.09999999999997-45.9Q 222.09999999999997-50.9  225.64999999999998-54.45Q 229.19999999999996-58  234.19999999999996-58L 234.19999999999996-58L 281-58L 281-49.8L 234.19999999999996-49.8Q 232.59999999999997-49.8  231.44999999999996-48.65Q 230.29999999999998-47.5  230.29999999999998-45.9L 230.29999999999998-45.9L 230.29999999999998-12.1Q 230.29999999999998-10.5  231.44999999999996-9.35Q 232.59999999999997-8.2  234.19999999999996-8.2ZM 301.19999999999993-58L 335.99999999999994-58Q 341.09999999999997-58  344.6499999999999-54.45Q 348.19999999999993-50.9  348.19999999999993-45.9L 348.19999999999993-45.9L 348.19999999999993-24.9L 297.29999999999995-24.9L 297.29999999999995-12.1Q 297.29999999999995-10.5  298.44999999999993-9.35Q 299.59999999999997-8.2  301.19999999999993-8.2L 301.19999999999993-8.2L 348.19999999999993-8.2L 348.19999999999993 0L 301.19999999999993 0Q 296.19999999999993 0  292.6499999999999-3.55Q 289.09999999999997-7.1  289.09999999999997-12.1L 289.09999999999997-12.1L 289.09999999999997-45.9Q 289.09999999999997-50.9  292.6499999999999-54.45Q 296.19999999999993-58  301.19999999999993-58L 301.19999999999993-58ZM 297.29999999999995-45.9L 297.29999999999995-33.1L 339.8999999999999-33.1L 339.8999999999999-45.9Q 339.8999999999999-47.5  338.74999999999994-48.65Q 337.59999999999997-49.8  335.99999999999994-49.8L 335.99999999999994-49.8L 301.19999999999993-49.8Q 299.59999999999997-49.8  298.44999999999993-48.65Q 297.29999999999995-47.5  297.29999999999995-45.9L 297.29999999999995-45.9ZM 422.49999999999994-12L 422.49999999999994-12L 422.49999999999994-72L 430.5999999999999-72L 430.5999999999999-12Q 430.5999999999999-7  427.0999999999999-3.5Q 423.5999999999999 0  418.5999999999999 0L 418.5999999999999 0L 370.5999999999999 0Q 365.5999999999999 0  362.0999999999999-3.5Q 358.5999999999999-7  358.5999999999999-12L 358.5999999999999-12L 358.5999999999999-72L 366.69999999999993-72L 366.69999999999993-12Q 366.69999999999993-10.4  367.8499999999999-9.25Q 368.99999999999994-8.1  370.5999999999999-8.1L 370.5999999999999-8.1L 418.5999999999999-8.1Q 420.19999999999993-8.1  421.3499999999999-9.25Q 422.49999999999994-10.4  422.49999999999994-12ZM 499.8999999999999-45.9L 499.8999999999999-45.9L 499.8999999999999-45.1L 491.59999999999997-45.1L 491.59999999999997-45.9Q 491.59999999999997-47.5  490.44999999999993-48.65Q 489.29999999999995-49.8  487.69999999999993-49.8L 487.69999999999993-49.8L 452.8999999999999-49.8Q 451.29999999999995-49.8  450.1499999999999-48.65Q 448.99999999999994-47.5  448.99999999999994-45.9L 448.99999999999994-45.9L 448.99999999999994-37Q 448.99999999999994-35.4  450.1499999999999-34.25Q 451.29999999999995-33.1  452.8999999999999-33.1L 452.8999999999999-33.1L 487.69999999999993-33.1Q 492.79999999999995-33.1  496.34999999999997-29.55Q 499.8999999999999-26  499.8999999999999-21L 499.8999999999999-21L 499.8999999999999-12.1Q 499.8999999999999-7.1  496.34999999999997-3.55Q 492.79999999999995 0  487.69999999999993 0L 487.69999999999993 0L 452.8999999999999 0Q 447.8999999999999 0  444.34999999999997-3.55Q 440.79999999999995-7.1  440.79999999999995-12.1L 440.79999999999995-12.1L 440.79999999999995-12.9L 448.99999999999994-12.9L 448.99999999999994-12.1Q 448.99999999999994-10.5  450.1499999999999-9.35Q 451.29999999999995-8.2  452.8999999999999-8.2L 452.8999999999999-8.2L 487.69999999999993-8.2Q 489.29999999999995-8.2  490.44999999999993-9.35Q 491.59999999999997-10.5  491.59999999999997-12.1L 491.59999999999997-12.1L 491.59999999999997-21Q 491.59999999999997-22.6  490.44999999999993-23.75Q 489.29999999999995-24.9  487.69999999999993-24.9L 487.69999999999993-24.9L 452.8999999999999-24.9Q 447.8999999999999-24.9  444.34999999999997-28.45Q 440.79999999999995-32  440.79999999999995-37L 440.79999999999995-37L 440.79999999999995-45.9Q 440.79999999999995-50.9  444.34999999999997-54.45Q 447.8999999999999-58  452.8999999999999-58L 452.8999999999999-58L 487.69999999999993-58Q 492.79999999999995-58  496.34999999999997-54.45Q 499.8999999999999-50.9  499.8999999999999-45.9ZM 520.3-58L 555.0999999999999-58Q 560.1999999999999-58  563.7499999999999-54.45Q 567.3-50.9  567.3-45.9L 567.3-45.9L 567.3-24.9L 516.3999999999999-24.9L 516.3999999999999-12.1Q 516.3999999999999-10.5  517.55-9.35Q 518.6999999999999-8.2  520.3-8.2L 520.3-8.2L 567.3-8.2L 567.3 0L 520.3 0Q 515.3 0  511.7499999999999-3.55Q 508.19999999999993-7.1  508.19999999999993-12.1L 508.19999999999993-12.1L 508.19999999999993-45.9Q 508.19999999999993-50.9  511.7499999999999-54.45Q 515.3-58  520.3-58L 520.3-58ZM 516.3999999999999-45.9L 516.3999999999999-33.1L 558.9999999999999-33.1L 558.9999999999999-45.9Q 558.9999999999999-47.5  557.8499999999999-48.65Q 556.6999999999999-49.8  555.0999999999999-49.8L 555.0999999999999-49.8L 520.3-49.8Q 518.6999999999999-49.8  517.55-48.65Q 516.3999999999999-47.5  516.3999999999999-45.9L 516.3999999999999-45.9Z" data-textpath="SpaceUse" data-text-anchor="middle" data-font-size="100" data-letterspacing="0" data-side="left" data-offset="0.5" data-dx="0" data-dy="0" data-xmlspace="preserve" data-href="" data-font="Orbitron" data-font-src="/Content/clientfonts/orbitron.woff" data-font-scale="contain" transform="translate(0,0)" data-x="0" data-y="0" fill="url('#linearGradientSjsi0sschh')"></path>
        </g>
      </svg>
    </g>
  </g>
</svg>